<mxfile host="app.diagrams.net" modified="2021-09-08T12:35:58.513Z" agent="5.0 (Windows NT 10.0; Win64; x64) AppleWebKit/537.36 (KHTML, like Gecko) Chrome/92.0.4515.159 Safari/537.36" etag="nkhDO6noS7SJ18V42Jz1" version="15.1.1" type="github">
  <diagram id="RsipwHmstDPNMy2VP-Ev" name="Page-1">
    <mxGraphModel dx="1038" dy="491" grid="1" gridSize="10" guides="1" tooltips="1" connect="1" arrows="1" fold="1" page="1" pageScale="1" pageWidth="827" pageHeight="1169" math="0" shadow="0">
      <root>
        <mxCell id="0" />
        <mxCell id="1" parent="0" />
        <mxCell id="8l71zG5UURdjVhLfGcb7-1" value="" style="rounded=0;whiteSpace=wrap;html=1;strokeWidth=2;" parent="1" vertex="1">
          <mxGeometry x="80" y="90" width="240" height="320.57142857142856" as="geometry" />
        </mxCell>
        <mxCell id="8l71zG5UURdjVhLfGcb7-2" value="&lt;b style=&quot;font-size: 14px&quot;&gt;Docker1&lt;/b&gt;" style="rounded=1;whiteSpace=wrap;html=1;strokeWidth=2;" parent="1" vertex="1">
          <mxGeometry x="102.5" y="138.57142857142856" width="82.5" height="116.57142857142857" as="geometry" />
        </mxCell>
        <mxCell id="8l71zG5UURdjVhLfGcb7-3" value="&lt;b style=&quot;font-size: 14px&quot;&gt;Docker2&lt;/b&gt;" style="rounded=1;whiteSpace=wrap;html=1;strokeWidth=2;" parent="1" vertex="1">
          <mxGeometry x="215" y="138.57142857142856" width="82.5" height="116.57142857142857" as="geometry" />
        </mxCell>
        <mxCell id="8l71zG5UURdjVhLfGcb7-4" value="&lt;font style=&quot;font-size: 14px&quot;&gt;&lt;b&gt;OvS&lt;/b&gt;&lt;/font&gt;" style="rounded=1;whiteSpace=wrap;html=1;strokeWidth=2;" parent="1" vertex="1">
          <mxGeometry x="102.5" y="298.8571428571429" width="195" height="58.285714285714285" as="geometry" />
        </mxCell>
        <mxCell id="8l71zG5UURdjVhLfGcb7-5" value="&lt;font style=&quot;font-size: 14px&quot;&gt;&lt;b&gt;Node1&lt;/b&gt;&lt;/font&gt;" style="text;html=1;strokeColor=none;fillColor=none;align=center;verticalAlign=middle;whiteSpace=wrap;rounded=0;strokeWidth=2;" parent="1" vertex="1">
          <mxGeometry x="95" y="99.71428571428571" width="30" height="19.428571428571427" as="geometry" />
        </mxCell>
        <mxCell id="8l71zG5UURdjVhLfGcb7-26" style="edgeStyle=orthogonalEdgeStyle;rounded=0;orthogonalLoop=1;jettySize=auto;html=1;exitX=0.5;exitY=1;exitDx=0;exitDy=0;entryX=0.5;entryY=1;entryDx=0;entryDy=0;startArrow=none;startFill=0;endArrow=none;endFill=0;strokeWidth=2;" parent="1" source="8l71zG5UURdjVhLfGcb7-6" target="8l71zG5UURdjVhLfGcb7-18" edge="1">
          <mxGeometry relative="1" as="geometry" />
        </mxCell>
        <mxCell id="8l71zG5UURdjVhLfGcb7-6" value="&lt;font style=&quot;font-size: 14px&quot;&gt;&lt;b&gt;eth0&lt;/b&gt;&lt;/font&gt;" style="rounded=0;whiteSpace=wrap;html=1;strokeWidth=2;" parent="1" vertex="1">
          <mxGeometry x="166.25" y="391.14285714285717" width="67.5" height="38.857142857142854" as="geometry" />
        </mxCell>
        <mxCell id="8l71zG5UURdjVhLfGcb7-7" value="&lt;font style=&quot;font-size: 14px&quot;&gt;&lt;b&gt;1.1.1.0/24&lt;/b&gt;&lt;/font&gt;" style="text;html=1;strokeColor=none;fillColor=none;align=center;verticalAlign=middle;whiteSpace=wrap;rounded=0;" parent="1" vertex="1">
          <mxGeometry x="185" y="99.71428571428571" width="30" height="19.428571428571427" as="geometry" />
        </mxCell>
        <mxCell id="8l71zG5UURdjVhLfGcb7-8" value="&lt;font style=&quot;font-size: 14px&quot;&gt;&lt;b&gt;172.16.10.2&lt;/b&gt;&lt;/font&gt;" style="text;html=1;strokeColor=none;fillColor=none;align=center;verticalAlign=middle;whiteSpace=wrap;rounded=0;" parent="1" vertex="1">
          <mxGeometry x="260" y="371.7142857142857" width="30" height="19.428571428571427" as="geometry" />
        </mxCell>
        <mxCell id="8l71zG5UURdjVhLfGcb7-11" style="edgeStyle=orthogonalEdgeStyle;rounded=0;orthogonalLoop=1;jettySize=auto;html=1;exitX=0.5;exitY=1;exitDx=0;exitDy=0;entryX=0.787;entryY=-0.015;entryDx=0;entryDy=0;entryPerimeter=0;startArrow=oval;startFill=1;endArrow=oval;endFill=1;strokeWidth=2;" parent="1" source="8l71zG5UURdjVhLfGcb7-3" target="8l71zG5UURdjVhLfGcb7-4" edge="1">
          <mxGeometry x="80" y="90" as="geometry" />
        </mxCell>
        <mxCell id="8l71zG5UURdjVhLfGcb7-10" style="edgeStyle=orthogonalEdgeStyle;rounded=0;orthogonalLoop=1;jettySize=auto;html=1;exitX=0.5;exitY=1;exitDx=0;exitDy=0;entryX=0.213;entryY=0.02;entryDx=0;entryDy=0;entryPerimeter=0;startArrow=oval;startFill=1;endArrow=oval;endFill=1;strokeWidth=2;" parent="1" edge="1">
          <mxGeometry x="80" y="89" as="geometry">
            <mxPoint x="143.75" y="254.1428571428571" as="sourcePoint" />
            <mxPoint x="144.03500000000008" y="299.0228571428572" as="targetPoint" />
            <Array as="points">
              <mxPoint x="144" y="260" />
              <mxPoint x="144" y="260" />
            </Array>
          </mxGeometry>
        </mxCell>
        <mxCell id="8l71zG5UURdjVhLfGcb7-12" style="edgeStyle=orthogonalEdgeStyle;rounded=0;orthogonalLoop=1;jettySize=auto;html=1;exitX=0.5;exitY=1;exitDx=0;exitDy=0;startArrow=oval;startFill=1;endArrow=oval;endFill=1;strokeWidth=2;" parent="1" source="8l71zG5UURdjVhLfGcb7-4" target="8l71zG5UURdjVhLfGcb7-6" edge="1">
          <mxGeometry relative="1" as="geometry" />
        </mxCell>
        <mxCell id="8l71zG5UURdjVhLfGcb7-13" value="" style="rounded=0;whiteSpace=wrap;html=1;strokeWidth=2;" parent="1" vertex="1">
          <mxGeometry x="414" y="90" width="240" height="320.57142857142856" as="geometry" />
        </mxCell>
        <mxCell id="8l71zG5UURdjVhLfGcb7-14" value="&lt;b style=&quot;font-size: 14px&quot;&gt;Docker1&lt;/b&gt;" style="rounded=1;whiteSpace=wrap;html=1;strokeWidth=2;" parent="1" vertex="1">
          <mxGeometry x="436.5" y="138.57142857142856" width="82.5" height="116.57142857142857" as="geometry" />
        </mxCell>
        <mxCell id="8l71zG5UURdjVhLfGcb7-15" value="&lt;b style=&quot;font-size: 14px&quot;&gt;Docker2&lt;/b&gt;" style="rounded=1;whiteSpace=wrap;html=1;strokeWidth=2;" parent="1" vertex="1">
          <mxGeometry x="549" y="138.57142857142856" width="82.5" height="116.57142857142857" as="geometry" />
        </mxCell>
        <mxCell id="8l71zG5UURdjVhLfGcb7-16" value="&lt;font style=&quot;font-size: 14px&quot;&gt;&lt;b&gt;OvS&lt;/b&gt;&lt;/font&gt;" style="rounded=1;whiteSpace=wrap;html=1;strokeWidth=2;" parent="1" vertex="1">
          <mxGeometry x="436.5" y="298.8571428571429" width="195" height="58.285714285714285" as="geometry" />
        </mxCell>
        <mxCell id="8l71zG5UURdjVhLfGcb7-17" value="&lt;font style=&quot;font-size: 14px&quot;&gt;&lt;b&gt;Node2&lt;/b&gt;&lt;/font&gt;" style="text;html=1;strokeColor=none;fillColor=none;align=center;verticalAlign=middle;whiteSpace=wrap;rounded=0;strokeWidth=2;" parent="1" vertex="1">
          <mxGeometry x="429" y="99.71428571428571" width="30" height="19.428571428571427" as="geometry" />
        </mxCell>
        <mxCell id="8l71zG5UURdjVhLfGcb7-18" value="&lt;font style=&quot;font-size: 14px&quot;&gt;&lt;b&gt;eth0&lt;/b&gt;&lt;/font&gt;" style="rounded=0;whiteSpace=wrap;html=1;strokeWidth=2;" parent="1" vertex="1">
          <mxGeometry x="500.25" y="391.14285714285717" width="67.5" height="38.857142857142854" as="geometry" />
        </mxCell>
        <mxCell id="8l71zG5UURdjVhLfGcb7-19" value="&lt;font style=&quot;font-size: 14px&quot;&gt;&lt;b&gt;1.1.1.0/24&lt;/b&gt;&lt;/font&gt;" style="text;html=1;strokeColor=none;fillColor=none;align=center;verticalAlign=middle;whiteSpace=wrap;rounded=0;" parent="1" vertex="1">
          <mxGeometry x="519" y="99.71428571428571" width="30" height="19.428571428571427" as="geometry" />
        </mxCell>
        <mxCell id="8l71zG5UURdjVhLfGcb7-20" value="&lt;font style=&quot;font-size: 14px&quot;&gt;&lt;b&gt;172.16.10.3&lt;/b&gt;&lt;/font&gt;" style="text;html=1;strokeColor=none;fillColor=none;align=center;verticalAlign=middle;whiteSpace=wrap;rounded=0;" parent="1" vertex="1">
          <mxGeometry x="594" y="371.7142857142857" width="30" height="19.428571428571427" as="geometry" />
        </mxCell>
        <mxCell id="8l71zG5UURdjVhLfGcb7-21" style="edgeStyle=orthogonalEdgeStyle;rounded=0;orthogonalLoop=1;jettySize=auto;html=1;exitX=0.5;exitY=1;exitDx=0;exitDy=0;entryX=0.787;entryY=-0.015;entryDx=0;entryDy=0;entryPerimeter=0;startArrow=oval;startFill=1;endArrow=oval;endFill=1;strokeWidth=2;" parent="1" source="8l71zG5UURdjVhLfGcb7-15" target="8l71zG5UURdjVhLfGcb7-16" edge="1">
          <mxGeometry x="414" y="90" as="geometry" />
        </mxCell>
        <mxCell id="8l71zG5UURdjVhLfGcb7-22" style="edgeStyle=orthogonalEdgeStyle;rounded=0;orthogonalLoop=1;jettySize=auto;html=1;exitX=0.5;exitY=1;exitDx=0;exitDy=0;entryX=0.213;entryY=0.02;entryDx=0;entryDy=0;entryPerimeter=0;startArrow=oval;startFill=1;endArrow=oval;endFill=1;strokeWidth=2;" parent="1" edge="1">
          <mxGeometry x="414" y="89" as="geometry">
            <mxPoint x="477.75" y="254.1428571428571" as="sourcePoint" />
            <mxPoint x="478.0350000000001" y="299.0228571428572" as="targetPoint" />
            <Array as="points">
              <mxPoint x="478" y="260" />
              <mxPoint x="478" y="260" />
            </Array>
          </mxGeometry>
        </mxCell>
        <mxCell id="8l71zG5UURdjVhLfGcb7-23" style="edgeStyle=orthogonalEdgeStyle;rounded=0;orthogonalLoop=1;jettySize=auto;html=1;exitX=0.5;exitY=1;exitDx=0;exitDy=0;startArrow=oval;startFill=1;endArrow=oval;endFill=1;strokeWidth=2;" parent="1" source="8l71zG5UURdjVhLfGcb7-16" target="8l71zG5UURdjVhLfGcb7-18" edge="1">
          <mxGeometry relative="1" as="geometry" />
        </mxCell>
        <mxCell id="8l71zG5UURdjVhLfGcb7-25" value="" style="shape=flexArrow;endArrow=none;startArrow=none;html=1;strokeWidth=2;exitX=1;exitY=0.5;exitDx=0;exitDy=0;entryX=0;entryY=0.5;entryDx=0;entryDy=0;endFill=0;startFill=0;fillColor=#eeeeee;strokeColor=#36393d;" parent="1" source="8l71zG5UURdjVhLfGcb7-4" target="8l71zG5UURdjVhLfGcb7-16" edge="1">
          <mxGeometry width="100" height="100" relative="1" as="geometry">
            <mxPoint x="350" y="390" as="sourcePoint" />
            <mxPoint x="450" y="290" as="targetPoint" />
          </mxGeometry>
        </mxCell>
        <mxCell id="8l71zG5UURdjVhLfGcb7-27" value="&lt;font style=&quot;font-size: 14px&quot;&gt;&lt;b&gt;VxLAN&lt;/b&gt;&lt;/font&gt;" style="text;html=1;strokeColor=none;fillColor=none;align=center;verticalAlign=middle;whiteSpace=wrap;rounded=0;" parent="1" vertex="1">
          <mxGeometry x="340" y="299" width="40" height="20" as="geometry" />
        </mxCell>
      </root>
    </mxGraphModel>
  </diagram>
</mxfile>
